<svg xmlns="http://www.w3.org/2000/svg" viewBox="0 0 1200 630" width="1200" height="630" role="img" aria-label="brtlb — pediatric documentation, compressed.">
  <defs>
    <linearGradient id="bg-s" x1="0" y1="0" x2="1" y2="1">
      <stop offset="0%" stop-color="#1F2328"></stop>
      <stop offset="100%" stop-color="#2A2F36"></stop>
    </linearGradient>
    <radialGradient id="glow-s" cx="0.85" cy="0.12" r="0.7">
      <stop offset="0%" stop-color="#A8E6CF" stop-opacity="0.22"></stop>
      <stop offset="100%" stop-color="#A8E6CF" stop-opacity="0"></stop>
    </radialGradient>
    <radialGradient id="glow-s2" cx="0.10" cy="0.92" r="0.55">
      <stop offset="0%" stop-color="#A8E6CF" stop-opacity="0.10"></stop>
      <stop offset="100%" stop-color="#A8E6CF" stop-opacity="0"></stop>
    </radialGradient>
    
  </defs>

  <rect width="1200" height="630" fill="url(#bg-s)"></rect>
  <rect width="1200" height="630" fill="url(#glow-s)"></rect>
  <rect width="1200" height="630" fill="url(#glow-s2)"></rect>
  <rect x="0.5" y="0.5" width="1199" height="629" fill="none" stroke="#ffffff" stroke-opacity="0.06"></rect>

  
  <g transform="translate(96, 110)">
    <circle cx="0" cy="0" r="6" fill="#6FCFA8"></circle>
    <circle cx="0" cy="0" r="13" fill="#6FCFA8" fill-opacity="0.28"></circle>
    <text x="24" y="6" fill="#A8E6CF" class="mono" font-size="17">
      brtlb · v0.1
    </text>
  </g>

  
  <g transform="translate(96, 198)">
    <circle cx="62" cy="0" r="15" fill="#A8E6CF"></circle>
    <circle cx="148" cy="0" r="15" fill="#A8E6CF"></circle>
    <circle cx="234" cy="0" r="15" fill="#A8E6CF"></circle>
  </g>

  
  <text x="96" y="372" fill="#FFFFFF" class="word" font-size="260">brtlb</text>

  
  <text x="96" y="438" fill="#FFFFFF" fill-opacity="0.76" class="tag" font-size="32">
    Less noise. Same meaning.
  </text>

  
  <text x="96" y="478" fill="#FFFFFF" fill-opacity="0.50" class="tag" font-size="20">
    Pediatric documentation, compressed.
  </text>

  
  <g transform="translate(720, 130)">
    <text x="0" y="0" fill="#A8E6CF" class="mono" font-size="13">— from the scrivener</text>
    <text x="0" y="48" fill="#FFFFFF" fill-opacity="0.92" class="quote" font-size="32">&#34;I would prefer not to</text>
    <text x="32" y="92" fill="#FFFFFF" fill-opacity="0.55" class="quote" font-size="32">…chart after hours.&#34;</text>
  </g>

  
  <rect x="700" y="194" width="1.5" height="100" fill="#A8E6CF" fill-opacity="0.35"></rect>

  
  <g transform="translate(96, 560)">
    <text x="0" y="0" fill="#FFFFFF" fill-opacity="0.45" class="mono" font-size="13">
      browser-only  ·  no backend  ·  ~$0.20 per visit  ·  byo keys
    </text>
  </g>

  
  <g transform="translate(1064, 560)">
    <circle cx="0" cy="0" r="5" fill="#A8E6CF"></circle>
    <circle cx="14" cy="0" r="5" fill="#A8E6CF"></circle>
    <circle cx="28" cy="0" r="5" fill="#A8E6CF"></circle>
  </g>
</svg>